<svg width="32" height="32" viewBox="0 0 32 32" fill="none" xmlns="http://www.w3.org/2000/svg">
  <g>
    <!-- Cannabis/Hemp leaf stylized icon -->
    <path d="M16 4 C14 6, 12 10, 12 14 C12 10, 10 8, 8 7" stroke="currentColor" stroke-width="1.5" stroke-linecap="round" stroke-linejoin="round" fill="none"/>
    <path d="M16 4 C18 6, 20 10, 20 14 C20 10, 22 8, 24 7" stroke="currentColor" stroke-width="1.5" stroke-linecap="round" stroke-linejoin="round" fill="none"/>
    <path d="M16 4 L16 14" stroke="currentColor" stroke-width="1.5" stroke-linecap="round"/>
    <path d="M12 14 C11 16, 9 18, 7 19" stroke="currentColor" stroke-width="1.5" stroke-linecap="round" stroke-linejoin="round" fill="none"/>
    <path d="M20 14 C21 16, 23 18, 25 19" stroke="currentColor" stroke-width="1.5" stroke-linecap="round" stroke-linejoin="round" fill="none"/>
    <path d="M16 14 C15 17, 14 20, 14 24" stroke="currentColor" stroke-width="1.5" stroke-linecap="round"/>
    <path d="M16 14 C17 17, 18 20, 18 24" stroke="currentColor" stroke-width="1.5" stroke-linecap="round"/>
    <path d="M14 24 L18 24" stroke="currentColor" stroke-width="1.5" stroke-linecap="round"/>
    <line x1="16" y1="24" x2="16" y2="28" stroke="currentColor" stroke-width="1.5" stroke-linecap="round"/>
  </g>
</svg>
